<svg width="140" height="36" viewBox="0 0 140 36" fill="none" xmlns="http://www.w3.org/2000/svg">
<path d="M27.2895 35L19.8195 24.38C23.8245 22.76 26.3895 19.205 26.3895 14.705C26.3895 8.45 21.4395 4.085 14.6445 4.085H0.28947V35H7.98447V25.325H11.7645L18.5595 35H27.2895ZM7.98447 11.105H13.9245C16.5795 11.105 18.4695 12.545 18.4695 14.705C18.4695 16.865 16.5795 18.305 13.9245 18.305H7.98447V11.105ZM42.6709 29.375C40.1959 29.375 38.3509 27.8 37.6309 25.46H54.2359C54.2359 16.595 49.9159 11.195 42.5359 11.195C35.5159 11.195 30.3859 16.235 30.3859 23.3C30.3859 30.455 35.6959 35.54 42.8959 35.54C46.3609 35.54 50.3659 34.055 52.4359 31.94L47.9359 27.395C46.5409 28.61 44.4709 29.375 42.6709 29.375ZM42.6709 17.315C44.9659 17.315 46.5409 18.71 47.1709 20.825H37.7209C38.5309 18.665 40.3759 17.315 42.6709 17.315ZM71.8368 28.43C71.3868 28.88 70.5318 29.195 69.6768 29.195C68.4618 29.195 67.5618 28.16 67.5618 26.675V17.81H72.3768V11.735H67.5618V5.345H60.2718V11.735H57.2118V17.81H60.2718V28.07C60.2718 32.435 63.3318 35.54 67.6968 35.54C69.6768 35.54 71.9718 34.64 73.3668 33.335L71.8368 28.43ZM88.557 11.195C84.957 11.195 81.627 12.23 78.387 13.85L80.772 18.62C82.752 17.585 84.417 16.91 86.622 16.91C89.817 16.91 91.707 18.71 91.707 21.185V21.5C89.907 20.78 87.972 20.375 86.262 20.375C80.772 20.375 76.407 23.57 76.407 28.115C76.407 32.525 80.322 35.54 85.272 35.54C87.657 35.54 90.087 34.64 91.707 33.02V35H99.042V21.185C99.042 14.975 94.542 11.195 88.557 11.195ZM87.117 30.86C85.092 30.86 83.652 29.69 83.652 27.89C83.652 26.09 85.272 24.785 87.342 24.785C88.917 24.785 90.537 25.1 91.707 25.55V28.025C91.392 29.78 89.367 30.86 87.117 30.86ZM117.718 35H125.368V3.545H117.718V35Z" fill="white"/>
<path d="M135.152 8.9C137.357 8.9 139.112 7.055 139.112 4.85C139.112 2.735 137.357 0.889999 135.152 0.889999C132.902 0.889999 131.102 2.735 131.102 4.85C131.102 7.055 132.902 8.9 135.152 8.9ZM131.282 35H138.887V11.735H131.282V35Z" fill="#E5362C"/>
</svg>
